<?xml version="1.0" encoding="UTF-8"?>
<svg width="68px" height="68px" viewBox="0 0 68 68" version="1.1" xmlns="http://www.w3.org/2000/svg" xmlns:xlink="http://www.w3.org/1999/xlink">
    <title>2</title>
    <g id="old" stroke="none" stroke-width="1" fill="none" fill-rule="evenodd">
        <g id="Final_wegile_1-Copy" transform="translate(-1776.000000, -514.000000)" fill-rule="nonzero">
            <g id="2" transform="translate(1776.000000, 514.000000)">
                <g id="Group" fill="#FFFFFF">
                    <path d="M34,68 L34,68 C15.2228462,68 0,52.7771538 0,34 L0,34 C0,15.2228462 15.2228462,0 34,0 L34,0 C52.7771538,0 68,15.2228462 68,34 L68,34 C68,52.7771538 52.7771538,68 34,68 Z" id="Path"></path>
                </g>
                <path d="M27.846,51 C27.5112308,51 27.1764615,50.8718462 26.9214615,50.6168462 C26.4101538,50.1055385 26.4101538,49.2790769 26.9214615,48.7677692 L41.6892308,34 L26.9214615,19.2322308 C26.4101538,18.7209231 26.4101538,17.8944615 26.9214615,17.3831538 C27.4327692,16.8718462 28.2592308,16.8718462 28.7705385,17.3831538 L43.8063846,32.419 C44.6786154,33.2912308 44.6786154,34.7087692 43.8063846,35.581 L28.7705385,50.6168462 C28.5155385,50.8718462 28.1807692,51 27.846,51 Z" id="Path" fill="#000000"></path>
            </g>
        </g>
    </g>
</svg>